<?xml version="1.0" standalone="no"?>
<!DOCTYPE svg PUBLIC "-//W3C//DTD SVG 20010904//EN"
 "http://www.w3.org/TR/2001/REC-SVG-20010904/DTD/svg10.dtd">
<svg version="1.0" xmlns="http://www.w3.org/2000/svg"
 width="225.000000pt" height="225.000000pt" viewBox="0 0 225.000000 225.000000"
 preserveAspectRatio="xMidYMid meet">

<g transform="translate(0.000000,225.000000) scale(0.100000,-0.100000)"
fill="#000000" stroke="none">
<path d="M1164 1311 c-39 -18 -80 -61 -100 -106 -6 -15 -10 -4 -12 43 -3 71
-13 77 -74 39 -43 -25 -83 -75 -105 -131 l-16 -39 -25 49 c-34 67 -57 95 -100
121 -73 45 -72 47 -72 -167 l0 -190 45 0 45 0 1 108 1 107 25 -53 c13 -29 27
-77 30 -107 l6 -55 42 0 42 0 5 58 c4 34 16 79 31 108 l26 49 1 -107 0 -108
45 0 45 0 0 68 0 67 30 -51 c40 -70 95 -98 184 -92 81 5 136 39 170 106 l25
47 1 -72 0 -73 95 0 95 0 0 45 0 45 -50 0 c-49 0 -50 1 -50 30 0 29 1 30 50
30 l50 0 0 45 0 45 -50 0 c-49 0 -50 1 -50 30 0 29 1 30 50 30 l50 0 0 45 0
45 -95 0 -95 0 0 -75 0 -75 -105 0 -105 0 0 -45 0 -45 55 0 c30 0 55 -4 55 -8
0 -5 -14 -21 -31 -38 -85 -82 -224 12 -189 128 23 78 124 107 188 53 21 -18
42 -25 71 -25 48 0 51 11 18 61 -47 72 -165 100 -253 60z"/>
<path d="M557 1306 c-105 -38 -162 -112 -223 -290 -13 -38 -24 -73 -24 -78 0
-4 20 -8 45 -8 29 0 45 4 45 13 0 6 5 29 11 50 l10 38 62 -3 62 -3 3 -47 3
-48 45 0 44 0 0 195 0 195 -22 0 c-13 -1 -40 -7 -61 -14z m-11 -182 c-3 -8
-20 -14 -41 -14 -47 0 -46 21 3 69 l37 36 3 -39 c2 -21 1 -44 -2 -52z"/>
<path d="M1854 1305 c-3 -8 -4 -39 -2 -70 1 -30 1 -55 -2 -55 -3 0 -17 15 -32
34 -29 36 -113 96 -135 96 -10 0 -13 -39 -13 -190 l0 -190 45 0 45 0 0 97 0
96 21 -19 c25 -21 79 -130 79 -156 0 -14 9 -18 40 -18 l40 0 0 195 0 195 -40
0 c-27 0 -43 -5 -46 -15z"/>
</g>
</svg>
