<?xml version="1.0" standalone="no"?>
<!DOCTYPE svg PUBLIC "-//W3C//DTD SVG 20010904//EN"
 "http://www.w3.org/TR/2001/REC-SVG-20010904/DTD/svg10.dtd">
<svg version="1.0" xmlns="http://www.w3.org/2000/svg"
 width="225.000000pt" height="225.000000pt" viewBox="0 0 225.000000 225.000000"
 preserveAspectRatio="xMidYMid meet">

<g transform="translate(0.000000,225.000000) scale(0.100000,-0.100000)"
fill="#000000" stroke="none">
<path d="M725 2240 c-4 -6 16 -52 43 -103 l50 -92 -55 -35 c-72 -46 -160 -140
-200 -216 -34 -63 -63 -165 -63 -221 l0 -33 626 0 626 0 -7 63 c-19 165 -133
338 -275 418 l-39 22 50 93 c46 86 53 114 29 114 -5 0 -32 -43 -61 -95 -28
-52 -51 -95 -52 -95 -1 0 -25 9 -53 19 -123 47 -314 47 -438 0 -28 -10 -52
-19 -53 -19 -1 0 -24 43 -52 95 -50 92 -63 106 -76 85z m143 -376 c32 -22 30
-71 -3 -86 -60 -27 -107 49 -53 86 12 9 25 16 28 16 3 0 16 -7 28 -16z m570 0
c32 -22 30 -71 -3 -86 -60 -27 -107 49 -53 86 12 9 25 16 28 16 3 0 16 -7 28
-16z"/>
<path d="M251 1502 c-19 -9 -44 -30 -55 -45 -20 -27 -21 -40 -21 -360 0 -381
0 -383 81 -418 78 -35 162 1 184 79 7 24 10 149 8 359 l-3 321 -25 27 c-52 56
-108 68 -169 37z"/>
<path d="M1890 1513 c-23 -9 -60 -45 -76 -75 -20 -39 -20 -643 0 -692 30 -72
106 -100 181 -67 37 16 50 29 66 66 19 43 20 63 17 364 -3 305 -4 321 -24 348
-36 49 -112 75 -164 56z"/>
<path d="M510 1020 c0 -520 -1 -509 63 -549 26 -16 51 -21 104 -21 l70 0 6
-175 c7 -188 14 -218 62 -249 59 -39 129 -29 181 25 l29 30 3 185 3 184 94 0
94 0 3 -184 3 -185 30 -31 c63 -66 159 -63 212 7 28 36 28 37 31 215 l4 178
71 0 c80 0 115 16 148 66 18 27 19 55 19 502 l0 472 -615 0 -615 0 0 -470z"/>
</g>
</svg>
