<?xml version="1.0" standalone="no"?>
<!DOCTYPE svg PUBLIC "-//W3C//DTD SVG 20010904//EN"
 "http://www.w3.org/TR/2001/REC-SVG-20010904/DTD/svg10.dtd">
<svg version="1.0" xmlns="http://www.w3.org/2000/svg"
 width="207.000000pt" height="243.000000pt" viewBox="0 0 207.000000 243.000000"
 preserveAspectRatio="xMidYMid meet">

<g transform="translate(0.000000,243.000000) scale(0.100000,-0.100000)"
fill="#000000" stroke="none">
<path d="M5 2348 c5 -64 83 -1244 132 -1971 5 -87 9 -100 27 -108 23 -10 503
-161 727 -228 l135 -41 321 94 c466 137 557 166 567 176 5 5 15 96 23 202 23
315 131 1943 130 1944 -1 1 -467 5 -1035 8 l-1033 7 6 -83z m1649 -394 l46 -7
-5 -46 c-8 -64 -125 -1247 -125 -1260 0 -15 -491 -171 -540 -171 -29 0 -530
146 -541 157 -8 9 -29 268 -29 357 l0 56 130 0 130 0 0 -82 c0 -129 -9 -118
160 -172 l149 -47 140 37 c77 20 144 40 150 43 10 6 52 340 44 354 -2 4 -146
7 -319 7 l-314 0 0 133 0 134 233 6 c127 4 274 7 325 7 50 0 92 3 92 8 0 4 9
62 19 130 l18 122 -519 0 -518 0 0 59 c0 32 -3 86 -6 120 l-7 61 620 0 c341 0
641 -3 667 -6z"/>
</g>
</svg>
