<?xml version="1.0" standalone="no"?>
<!DOCTYPE svg PUBLIC "-//W3C//DTD SVG 20010904//EN"
 "http://www.w3.org/TR/2001/REC-SVG-20010904/DTD/svg10.dtd">
<svg version="1.0" xmlns="http://www.w3.org/2000/svg"
 width="225.000000pt" height="225.000000pt" viewBox="0 0 225.000000 225.000000"
 preserveAspectRatio="xMidYMid meet">

<g transform="translate(0.000000,225.000000) scale(0.100000,-0.100000)"
fill="#000000" stroke="none">
<path d="M480 2100 l0 -150 50 0 50 0 0 50 0 50 45 0 45 0 0 -50 0 -50 50 0
50 0 0 150 0 150 -50 0 -50 0 0 -50 0 -50 -45 0 -45 0 0 50 0 50 -50 0 -50 0
0 -150z"/>
<path d="M820 2200 l0 -50 45 0 45 0 0 -100 0 -100 50 0 50 0 0 100 0 100 40
0 40 0 0 50 0 50 -135 0 -135 0 0 -50z"/>
<path d="M1140 2100 l0 -150 50 0 50 0 0 73 0 72 31 -47 c17 -27 35 -48 39
-48 4 0 22 21 39 48 l31 47 0 -72 0 -73 50 0 50 0 0 150 0 150 -52 0 -53 0
-28 -50 c-16 -28 -31 -50 -35 -50 -5 0 -21 23 -37 50 l-29 50 -53 0 -53 0 0
-150z"/>
<path d="M1530 2100 l0 -150 126 0 125 0 -3 48 -3 47 -72 3 -73 3 0 99 0 100
-50 0 -50 0 0 -150z"/>
<path d="M333 1758 c3 -29 36 -395 73 -813 37 -418 67 -761 68 -762 1 -1 147
-42 325 -92 l325 -90 325 90 c179 50 326 91 327 92 0 1 31 344 68 762 37 418
70 784 73 813 l6 52 -798 0 -798 0 6 -52z m1283 -374 c-4 -53 -9 -101 -12
-106 -3 -4 -175 -8 -382 -8 -301 1 -377 -2 -375 -12 1 -7 4 -52 8 -100 l7 -88
365 0 366 0 -6 -37 c-3 -21 -16 -157 -28 -303 -12 -146 -24 -267 -25 -269 -2
-2 -95 -29 -206 -60 l-203 -57 -155 43 c-85 24 -178 50 -206 58 l-51 15 -11
138 c-7 76 -12 146 -12 155 0 15 13 17 99 17 l100 0 6 -79 7 -79 112 -29 111
-30 90 25 c144 39 131 27 139 134 4 51 10 108 13 126 l5 32 -346 0 c-190 0
-346 1 -347 3 -5 16 -53 599 -50 602 2 3 227 5 499 5 l495 0 -7 -96z"/>
</g>
</svg>
