<?xml version="1.0" standalone="no"?>
<!DOCTYPE svg PUBLIC "-//W3C//DTD SVG 20010904//EN"
 "http://www.w3.org/TR/2001/REC-SVG-20010904/DTD/svg10.dtd">
<svg version="1.0" xmlns="http://www.w3.org/2000/svg"
 width="225.000000pt" height="225.000000pt" viewBox="0 0 225.000000 225.000000"
 preserveAspectRatio="xMidYMid meet">
<metadata>
Created by potrace 1.16, written by Peter Selinger 2001-2019
</metadata>
<g transform="translate(0.000000,225.000000) scale(0.100000,-0.100000)"
fill="#000000" stroke="none">
<path d="M0 1125 l0 -1125 1125 0 1125 0 0 1125 0 1125 -1125 0 -1125 0 0
-1125z m1304 650 c0 -82 -26 -127 -120 -212 -176 -156 -174 -153 -174 -219 0
-52 17 -115 64 -239 16 -41 -117 110 -140 159 -58 123 -9 216 188 359 42 31
85 68 97 83 24 31 51 113 51 158 l1 31 16 -30 c10 -18 17 -54 17 -90z m64
-222 c-62 -50 -130 -118 -144 -145 -22 -41 -17 -77 17 -129 55 -86 48 -159
-23 -225 l-31 -29 7 25 c20 74 18 83 -23 138 -49 65 -71 145 -51 192 18 44 97
111 187 158 91 48 107 52 61 15z m248 -478 c38 -16 64 -62 64 -113 0 -63 -73
-126 -190 -167 l-45 -15 69 62 c77 69 101 113 86 152 -10 27 -56 56 -89 56
-32 0 -35 19 -4 26 15 3 33 7 38 9 20 7 36 5 71 -10z m-706 -9 c0 -2 -25 -12
-55 -21 -64 -21 -87 -41 -59 -52 30 -12 513 -8 564 5 57 14 62 8 13 -17 -102
-51 -316 -78 -493 -62 -136 13 -200 37 -200 76 0 40 47 56 218 74 6 0 12 -1
12 -3z m-62 -203 c-2 -11 6 -19 22 -24 46 -13 286 -9 365 6 78 15 99 12 124
-19 10 -12 4 -16 -41 -25 -115 -23 -187 -31 -285 -31 -122 0 -195 14 -230 44
l-26 22 28 22 c33 26 47 28 43 5z m56 -158 c20 -27 175 -39 281 -22 l90 14 40
-25 40 -26 -60 -19 c-124 -40 -381 -31 -440 15 -29 23 -33 53 -7 67 24 15 43
13 56 -4z m-192 -110 c-23 -7 -50 -19 -58 -26 -14 -11 -13 -14 8 -25 13 -6 57
-18 98 -25 98 -18 494 -18 605 0 127 20 199 41 217 62 17 20 30 8 20 -19 -14
-40 -182 -86 -377 -103 -151 -14 -459 -6 -551 14 -97 21 -144 61 -111 95 17
16 111 40 162 40 27 1 25 -1 -13 -13z m949 -92 c-15 -29 -54 -61 -93 -77 -68
-29 -226 -48 -393 -48 -149 -1 -345 15 -372 30 -6 4 97 6 230 4 133 -2 286 2
341 8 105 11 218 45 263 79 34 25 36 25 24 4z"/>
</g>
</svg>
