<?xml version="1.0" standalone="no"?>
<!DOCTYPE svg PUBLIC "-//W3C//DTD SVG 20010904//EN"
 "http://www.w3.org/TR/2001/REC-SVG-20010904/DTD/svg10.dtd">
<svg version="1.0" xmlns="http://www.w3.org/2000/svg"
 width="310.000000pt" height="162.000000pt" viewBox="0 0 310.000000 162.000000"
 preserveAspectRatio="xMidYMid meet">

<g transform="translate(0.000000,162.000000) scale(0.100000,-0.100000)"
fill="#000000" stroke="none">
<path d="M1372 1373 c-6 -27 -43 -212 -82 -413 -39 -201 -73 -373 -76 -382 -5
-16 4 -18 99 -18 l104 0 47 238 48 237 104 -3 c86 -3 106 -6 113 -20 6 -12 -3
-85 -30 -226 -21 -115 -39 -213 -39 -218 0 -5 48 -7 107 -6 l108 3 37 215 c20
118 37 233 37 256 1 56 -32 103 -94 134 -43 21 -67 25 -178 28 l-129 4 6 37
c3 20 12 69 20 109 l14 72 -103 0 -103 0 -10 -47z"/>
<path d="M519 773 l-84 -428 99 -3 c54 -1 100 -1 102 1 2 2 14 51 25 110 l22
106 146 3 c142 3 148 4 213 36 136 67 209 190 209 353 1 125 -59 203 -176 234
-44 11 -112 15 -266 15 l-206 0 -84 -427z m493 227 c29 -29 30 -34 24 -83 -8
-64 -42 -135 -77 -160 -34 -24 -89 -36 -169 -37 l-66 0 27 153 c15 83 27 153
28 155 1 1 46 2 102 2 99 0 101 -1 131 -30z"/>
<path d="M2025 1188 c-6 -20 -165 -821 -165 -836 0 -10 24 -12 102 -10 l102 3
19 107 20 106 151 4 c142 3 154 5 206 31 113 58 189 164 211 294 23 134 -24
238 -131 287 -41 19 -67 21 -278 24 -186 3 -233 1 -237 -10z m411 -191 c28
-33 31 -71 9 -144 -18 -59 -65 -106 -122 -122 -55 -16 -173 -14 -173 2 0 8 49
302 50 302 0 0 48 -2 106 -5 101 -5 107 -6 130 -33z"/>
</g>
</svg>
