<?xml version="1.0" standalone="no"?>
<!DOCTYPE svg PUBLIC "-//W3C//DTD SVG 20010904//EN"
 "http://www.w3.org/TR/2001/REC-SVG-20010904/DTD/svg10.dtd">
<svg version="1.0" xmlns="http://www.w3.org/2000/svg"
 width="225.000000pt" height="225.000000pt" viewBox="0 0 225.000000 225.000000"
 preserveAspectRatio="xMidYMid meet">

<g transform="translate(0.000000,225.000000) scale(0.100000,-0.100000)"
fill="#000000" stroke="none">
<path d="M7 2243 c-4 -3 -7 -510 -7 -1125 l0 -1118 1125 0 1125 0 0 1125 0
1125 -1118 0 c-615 0 -1122 -3 -1125 -7z m1057 -223 c11 0 36 -60 36 -84 0 -3
-13 -6 -30 -6 -16 0 -30 5 -30 11 0 6 -9 9 -20 6 -11 -3 -20 0 -20 6 0 7 -3
22 -6 35 -5 16 -2 22 10 22 9 0 16 5 16 11 0 6 7 8 16 5 9 -3 21 -6 28 -6z
m189 -7 c4 -3 6 -12 3 -21 -2 -10 -7 -29 -10 -44 -4 -16 -11 -28 -17 -28 -6 0
-8 7 -5 16 4 11 2 15 -8 11 -7 -3 -18 -1 -24 5 -8 8 -13 7 -18 -5 -12 -32 -25
-17 -19 21 11 63 11 64 52 56 21 -4 42 -9 46 -11z m-324 -46 c-4 -30 2 -47 16
-47 8 0 15 -5 15 -11 0 -6 -9 -9 -20 -6 -11 3 -18 1 -15 -3 3 -5 -8 -15 -24
-23 -30 -15 -36 -11 -39 27 0 5 -7 13 -16 18 -25 14 -19 24 27 46 43 20 59 20
56 -1z m431 -12 c-14 -16 -50 -21 -50 -6 0 8 15 14 54 20 5 0 3 -6 -4 -14z
m36 -25 c1 -17 -2 -30 -6 -30 -10 0 -18 31 -13 48 8 22 18 13 19 -18z m-49
-15 c-15 -11 -16 -13 -2 -19 8 -3 15 -1 15 5 0 6 5 7 10 4 6 -3 10 -15 10 -26
0 -10 -4 -19 -10 -19 -5 0 -10 4 -10 8 0 4 -13 13 -30 19 -37 14 -38 26 -2 39
33 13 43 7 19 -11z m-81 -26 c114 -40 210 -132 255 -246 19 -47 23 -78 24
-158 0 -92 -3 -105 -32 -168 -130 -274 -466 -341 -689 -135 -46 42 -109 153
-118 208 -3 19 -8 49 -11 65 -8 50 14 157 45 221 55 114 184 212 306 234 67
12 147 4 220 -21z m-461 -89 c-16 -16 -31 -30 -34 -30 -3 1 -22 14 -41 30
l-34 30 34 35 34 35 35 -35 35 -35 -29 -30z m713 -7 c-36 -38 -46 -40 -55 -15
-3 9 -13 25 -20 34 -13 15 -13 20 4 42 l18 24 30 -26 c30 -27 30 -27 7 -1 -35
40 -26 47 13 9 l35 -34 -32 -33z m-803 -92 c3 -7 -2 -22 -11 -32 -10 -11 -14
-19 -11 -19 3 0 1 -13 -4 -30 -6 -16 -18 -30 -26 -30 -13 0 -13 3 -3 15 10 13
9 15 -11 16 -13 1 -27 1 -31 0 -5 0 -8 8 -8 20 0 16 4 19 18 14 37 -15 55 -18
48 -7 -3 6 1 18 10 27 9 9 14 18 12 21 -3 2 -11 -2 -18 -11 -28 -33 -62 -6
-41 33 9 18 15 19 41 9 16 -6 32 -18 35 -26z m889 24 c3 -8 1 -15 -4 -15 -6 0
-10 -4 -10 -10 0 -5 5 -9 11 -7 6 1 14 -4 16 -10 3 -9 -9 -13 -41 -13 -25 0
-46 3 -46 7 0 9 52 62 61 62 4 1 9 -6 13 -14z m26 -70 c0 -2 -10 -13 -22 -25
-12 -11 -17 -20 -10 -20 6 0 14 5 17 10 9 15 25 12 25 -5 0 -9 -9 -15 -24 -15
-14 0 -28 -5 -32 -12 -5 -8 3 -9 29 -5 28 4 37 2 37 -9 0 -9 -11 -14 -29 -14
-17 0 -33 -5 -37 -11 -4 -7 6 -10 32 -7 31 2 39 -1 42 -16 3 -14 0 -17 -17
-11 -15 5 -21 2 -21 -10 0 -12 6 -15 20 -10 14 5 20 2 20 -9 0 -12 -10 -16
-37 -17 -21 0 -32 -3 -25 -6 10 -4 10 -8 1 -20 -10 -12 -10 -16 2 -24 21 -13
34 -5 33 20 -1 27 13 27 21 1 8 -27 -11 -50 -41 -50 -29 0 -37 12 -39 67 -1
39 0 43 18 37 13 -4 17 -2 13 5 -4 6 -13 11 -20 11 -17 0 -28 100 -13 118 7 9
6 11 -7 6 -9 -3 -16 -1 -16 4 0 6 8 13 18 15 24 7 62 8 62 2z m-986 -66 c42
-24 39 -36 -9 -45 -37 -7 -45 -18 -19 -28 26 -10 36 -7 30 10 -4 10 -1 14 6
12 18 -6 27 -126 11 -140 -9 -7 -13 -7 -13 1 0 6 -7 11 -16 11 -8 0 -12 5 -9
10 3 6 1 10 -4 10 -15 0 -14 -13 2 -29 10 -10 8 -12 -8 -9 -14 2 -21 12 -23
36 -2 24 0 31 11 27 7 -3 24 -1 38 4 13 5 18 10 11 10 -7 1 -10 6 -6 12 5 8
-3 10 -25 7 -31 -5 -31 -4 -31 40 0 35 3 43 15 38 9 -3 15 0 15 10 0 8 -4 12
-10 9 -5 -3 -10 1 -10 9 0 20 2 20 44 -5z m942 -228 c-3 -5 1 -12 10 -15 9 -3
12 -11 8 -18 -5 -8 -2 -9 9 -5 11 4 17 1 17 -8 0 -22 -13 -25 -51 -12 -33 11
-35 14 -26 40 5 15 15 27 23 27 9 0 13 -4 10 -9z m-890 -23 c8 -25 -17 -48
-52 -48 -27 0 -41 34 -24 55 20 24 67 19 76 -7z m34 -80 c0 -11 -8 -22 -19
-25 -24 -6 -36 -33 -16 -33 8 0 20 9 27 20 17 27 21 26 52 -18 30 -44 32 -55
10 -76 -20 -21 -30 -20 -54 4 -23 23 -26 40 -6 40 17 0 41 28 32 37 -3 4 -18
-4 -32 -18 l-25 -24 -19 25 c-22 29 -24 36 -10 45 6 3 10 11 10 17 0 7 -5 6
-14 -1 -10 -9 -16 -9 -21 -1 -8 13 -9 13 30 33 34 17 55 8 55 -25z m864 23
c14 -15 15 -24 6 -40 -19 -36 -80 -22 -80 19 0 39 46 52 74 21z m-81 -122
c-21 -4 -42 -4 -48 -1 -5 3 -2 -4 8 -15 23 -26 22 -50 -3 -63 -27 -14 -60 4
-60 33 0 26 50 77 77 78 10 0 13 3 5 6 -6 2 -9 9 -6 15 4 5 19 -3 36 -19 l29
-28 -38 -6z m1 -15 c9 -3 13 -10 10 -15 -8 -14 -21 -11 -28 6 -6 17 -4 18 18
9z m-637 -43 c3 -12 14 -18 30 -18 33 0 47 -16 39 -47 -13 -51 -76 -41 -76 13
0 35 -15 55 -34 48 -23 -9 -20 -37 4 -37 11 0 20 -4 20 -10 0 -5 -8 -10 -18
-10 -36 0 -55 43 -30 68 19 19 59 15 65 -7z m523 5 c0 -8 10 -22 23 -31 19
-13 20 -17 7 -25 -21 -13 -30 -12 -30 4 0 7 -8 20 -17 27 -14 12 -16 12 -8 0
6 -11 4 -13 -8 -8 -21 8 -22 -2 -2 -29 13 -20 11 -34 -5 -34 -4 0 -12 11 -18
25 -6 14 -16 24 -21 23 -25 -7 -8 17 26 37 46 28 53 29 53 11z m-399 -56 c20
-11 26 -40 9 -40 -7 0 -6 -8 1 -22 12 -23 12 -23 20 6 5 16 6 33 3 38 -3 4 8
8 25 8 16 0 31 -5 33 -11 3 -9 10 -8 25 2 27 16 53 -2 53 -36 0 -46 -52 -58
-68 -16 -5 15 -12 17 -30 10 -13 -5 -20 -13 -17 -19 3 -5 0 -10 -7 -10 -31 0
-56 13 -67 33 -7 13 -9 14 -7 5 4 -13 0 -18 -15 -18 -15 0 -19 5 -15 16 3 9 9
27 12 40 7 26 16 29 45 14z m312 -18 c27 -28 27 -42 0 -42 -8 0 -11 5 -8 10 3
6 -1 10 -9 10 -9 0 -13 -6 -10 -15 8 -20 -41 -31 -63 -14 -15 12 -16 12 -10
-3 5 -13 1 -18 -13 -18 -12 0 -18 7 -18 18 1 9 -2 27 -6 40 -7 20 -4 22 29 22
32 0 37 -3 32 -20 -5 -20 15 -45 26 -33 4 3 7 21 7 40 0 40 8 41 43 5z m-767
-205 c8 -39 1 -43 -34 -17 -18 14 -37 20 -47 16 -26 -10 -12 -30 28 -41 51
-14 81 -46 73 -78 -11 -45 -32 -57 -96 -56 l-58 2 -10 38 c-12 47 2 52 38 14
16 -17 33 -25 50 -23 41 5 29 31 -24 50 -53 19 -66 31 -66 66 0 39 34 62 90
60 45 -2 50 -5 56 -31z m858 24 c2 -3 7 -21 11 -38 8 -41 -15 -45 -39 -7 -35
53 -95 1 -82 -71 8 -40 28 -59 56 -50 20 6 29 45 10 45 -5 0 -10 7 -10 15 0
11 12 15 45 15 33 0 45 -4 45 -15 0 -8 -4 -15 -10 -15 -5 0 -10 -19 -10 -41 0
-37 -2 -41 -20 -36 -12 3 -33 2 -49 -3 -34 -9 -85 10 -100 39 -6 11 -11 41
-11 66 0 38 5 52 29 76 26 26 37 29 81 28 28 -1 52 -5 54 -8z m-690 -57 c9
-34 1 -41 -22 -21 -28 26 -32 21 -32 -38 0 -30 5 -55 10 -55 6 0 10 -7 10 -15
0 -11 -11 -15 -40 -15 -29 0 -40 4 -40 15 0 8 5 15 10 15 6 0 10 25 10 55 0
57 -12 70 -36 38 -16 -24 -27 -12 -18 21 6 25 9 26 74 26 65 0 68 -1 74 -26z
m113 -44 c13 -36 28 -66 33 -68 6 -2 10 -10 10 -18 0 -10 -12 -14 -40 -14 -39
0 -39 1 -33 30 5 27 3 30 -20 30 -14 0 -27 -7 -31 -15 -3 -8 -1 -15 4 -15 6 0
10 -7 10 -15 0 -10 -11 -15 -35 -15 -38 0 -42 5 -22 29 8 9 24 44 37 79 31 85
53 83 87 -8z m164 58 c0 -10 2 -10 6 0 3 8 27 12 69 12 60 0 65 -2 74 -26 13
-33 13 -34 -4 -34 -8 0 -16 7 -20 15 -3 8 -17 15 -31 15 -19 0 -25 -5 -25 -22
1 -22 1 -22 15 -4 19 24 32 14 29 -24 -3 -41 -11 -48 -29 -24 -15 18 -15 17
-13 -11 2 -24 7 -29 23 -27 11 2 28 12 37 23 25 30 41 14 23 -22 -15 -27 -19
-29 -79 -29 l-63 0 3 73 c2 39 1 64 -2 55 -7 -22 -11 -22 -30 -3 -9 8 -19 15
-23 15 -12 0 -12 -98 -1 -105 6 -3 10 -13 10 -21 0 -10 -12 -14 -40 -14 -29 0
-40 4 -40 15 0 8 5 15 10 15 6 0 10 25 10 55 0 59 -4 64 -32 38 -23 -20 -31
-13 -22 21 6 25 9 26 75 26 48 0 69 -4 70 -12z m567 6 c29 -8 40 -49 18 -72
-14 -16 -14 -20 0 -40 28 -40 44 -28 44 33 0 30 -4 55 -10 55 -5 0 -10 7 -10
15 0 12 17 15 95 15 52 0 105 -5 119 -11 31 -15 50 -59 41 -99 -10 -48 -44
-59 -176 -59 l-114 -1 -32 38 c-29 33 -32 35 -33 15 0 -12 5 -25 10 -28 23
-14 7 -25 -35 -25 -42 0 -58 11 -35 25 6 3 10 30 10 60 0 30 -4 57 -10 60 -5
3 -10 10 -10 16 0 10 92 12 128 3z m-1087 -241 c1 -5 2 -24 2 -43 2 -34 1 -35
-38 -38 l-40 -3 0 46 0 45 38 0 c20 0 37 -3 38 -7z m94 -28 c0 -41 27 -39 39
3 12 44 33 40 55 -10 l18 -43 17 33 c9 17 12 32 7 32 -5 0 -12 -6 -14 -12 -3
-7 -6 -3 -6 10 -1 19 4 22 34 22 39 0 42 -6 19 -38 -9 -13 -13 -26 -9 -30 3
-3 10 0 15 8 8 12 10 10 10 -7 0 -21 -4 -23 -60 -23 -49 0 -58 3 -54 15 4 10
0 15 -11 15 -11 0 -15 -5 -11 -15 10 -26 -58 -19 -78 8 l-17 22 6 -22 c5 -19
2 -23 -17 -23 -21 0 -23 5 -23 45 l0 46 40 -3 c37 -3 40 -5 40 -33z m231 -10
c1 -35 -3 -45 -15 -45 -12 0 -16 10 -16 45 0 33 4 45 15 45 11 0 15 -12 16
-45z m47 10 c-6 -36 4 -44 25 -23 15 15 24 6 16 -16 -4 -10 -18 -16 -38 -16
-30 0 -31 1 -31 45 0 36 4 45 17 45 14 0 16 -7 11 -35z m131 20 c-4 -9 0 -15
10 -15 10 0 13 6 10 15 -4 10 0 15 13 15 17 0 20 -7 19 -45 -1 -36 -4 -45 -19
-45 -14 0 -17 5 -12 20 5 15 2 20 -10 20 -12 0 -16 -6 -12 -20 4 -15 0 -20
-17 -20 -19 0 -21 5 -21 45 0 40 3 45 22 45 16 0 21 -4 17 -15z m152 -12 c8
-32 -6 -57 -35 -61 -28 -4 -51 14 -51 42 0 30 18 46 52 46 22 0 29 -6 34 -27z
m47 -8 c-4 -27 -2 -35 10 -35 8 0 17 6 20 13 2 6 7 9 11 6 16 -15 -8 -39 -39
-39 -31 0 -32 1 -31 45 1 35 5 45 18 45 14 0 16 -7 11 -35z m121 29 c22 -8 22
-70 0 -78 -9 -3 -28 -6 -42 -6 -25 0 -27 3 -27 45 0 42 2 45 27 45 14 0 33 -3
42 -6z m129 -16 l16 -23 -6 23 c-4 16 -1 22 12 22 12 0 15 -5 11 -16 -3 -9 -6
-29 -6 -45 0 -38 -13 -37 -39 4 l-21 32 6 -32 c6 -33 6 -33 -32 -33 l-39 0 0
45 0 45 41 0 c32 0 45 -5 57 -22z m121 7 c7 -18 -5 -20 -22 -3 -9 9 -15 9 -23
1 -14 -14 -8 -45 10 -51 10 -3 12 0 8 12 -5 12 -1 16 17 16 19 0 22 -4 18 -25
-4 -21 -10 -25 -38 -25 -42 0 -64 33 -45 69 14 25 66 29 75 6z m131 -5 c0 -8
4 -21 9 -28 12 -19 -12 -42 -45 -42 -26 0 -28 3 -27 38 0 20 3 41 5 45 8 14
58 3 58 -13z m124 -2 c23 -62 23 -68 2 -68 -14 0 -19 5 -15 15 4 10 0 15 -11
15 -11 0 -15 -5 -11 -15 4 -10 -1 -15 -14 -15 -25 0 -25 2 0 50 23 45 37 50
49 18z m-79 -53 c0 -8 -4 -15 -10 -15 -5 0 -10 7 -10 15 0 8 5 15 10 15 6 0
10 -7 10 -15z m140 -6 c0 -5 -7 -9 -15 -9 -15 0 -20 12 -9 23 8 8 24 -1 24
-14z m-368 -86 c-206 -2 -539 -2 -740 0 -202 1 -34 2 373 2 407 0 572 -1 367
-2z m-989 -62 c14 -1 17 -11 17 -65 l0 -65 -65 2 -65 2 0 66 0 65 48 -2 c26
-1 55 -2 65 -3z m143 -1 c17 0 24 -6 24 -20 0 -11 -4 -20 -9 -20 -16 0 -20
-40 -5 -54 8 -8 14 -19 14 -25 0 -18 -18 -12 -34 11 l-16 22 0 -22 c0 -14 -6
-22 -16 -22 -10 0 -14 5 -10 15 4 13 2 13 -14 5 -28 -15 -39 -12 -37 10 1 11
4 20 7 20 3 0 6 9 7 20 1 11 -2 20 -8 20 -5 0 -9 9 -9 19 0 19 37 33 68 24 8
-1 25 -3 38 -3z m114 0 c0 -5 11 -10 25 -10 22 0 25 -4 25 -37 0 -21 3 -48 6
-60 6 -21 3 -23 -34 -23 -32 0 -41 4 -45 21 -4 16 -11 19 -26 14 -19 -6 -21
-2 -21 39 0 39 3 46 19 46 11 0 23 5 26 10 3 6 10 10 16 10 5 0 9 -4 9 -10z
m348 -27 l3 -33 -50 0 c-44 0 -51 -3 -51 -20 0 -17 7 -20 39 -20 22 0 43 5 46
10 9 15 25 2 18 -15 -4 -11 -21 -15 -64 -15 l-59 0 0 65 0 66 58 -3 c56 -3 57
-3 60 -35z m212 27 c0 -14 37 -12 44 3 5 10 7 10 12 0 3 -7 15 -13 26 -13 16
0 19 -5 14 -22 -3 -13 -6 -29 -6 -35 0 -7 -7 -13 -15 -13 -8 0 -15 -6 -15 -12
0 -7 11 -13 25 -13 24 0 25 3 25 58 0 54 1 57 25 57 19 0 25 -6 26 -22 l2 -23
4 23 c6 29 49 31 58 2 3 -11 11 -20 17 -20 7 0 7 -4 1 -12 -19 -24 -22 -58 -6
-67 11 -6 12 -10 4 -15 -7 -4 -18 -3 -25 3 -7 6 -16 8 -20 4 -3 -4 -57 -8
-119 -10 l-112 -2 1 57 c1 31 2 63 3 70 1 14 31 17 31 2z m357 -7 c3 -10 13
-26 21 -36 8 -9 12 -20 8 -25 -10 -9 -56 44 -56 64 0 20 19 18 27 -3z m181
-52 c2 -49 0 -63 -13 -67 -21 -8 -31 2 -18 18 6 7 9 21 7 31 -5 33 -14 32 -14
-1 0 -31 -2 -32 -40 -32 -36 0 -40 3 -40 24 0 13 -3 31 -6 40 -5 12 0 16 17
17 l24 0 -23 10 c-37 14 -19 24 45 23 l58 -2 3 -61z m-900 -3 c-2 -42 -7 -63
-17 -66 -10 -3 -12 1 -9 16 5 17 1 19 -29 17 -19 -2 -41 -12 -49 -22 -12 -16
-13 -10 -14 50 l0 67 60 0 61 0 -3 -62z m308 46 c-3 -9 -6 -36 -6 -60 l0 -44
-60 0 -60 0 0 44 c0 24 -3 51 -6 60 -5 14 4 16 66 16 62 0 71 -2 66 -16z m374
10 c0 -12 -42 -64 -51 -64 -15 0 -10 19 13 45 20 24 38 32 38 19z m5 -70 c-14
-23 -14 -24 4 -24 15 0 19 5 14 16 -9 24 17 13 35 -14 14 -22 14 -22 -48 -22
-34 0 -60 3 -58 8 18 38 44 69 55 65 11 -4 11 -10 -2 -29z"/>
<path d="M1065 1950 c-3 -5 -2 -10 4 -10 5 0 13 5 16 10 3 6 2 10 -4 10 -5 0
-13 -4 -16 -10z"/>
<path d="M992 1882 c-231 -83 -347 -348 -245 -563 83 -175 247 -265 435 -239
204 28 350 199 350 410 0 169 -85 300 -241 373 -86 40 -215 48 -299 19z m303
-41 c103 -51 191 -161 210 -261 6 -34 3 -39 -45 -84 -58 -54 -150 -101 -230
-116 -82 -16 -210 -16 -220 0 -4 7 -11 45 -14 84 -9 100 13 218 57 302 23 41
29 60 17 49 -25 -23 -74 -120 -91 -180 -8 -27 -14 -96 -14 -152 0 -57 -3 -103
-6 -103 -4 0 -21 3 -38 6 l-31 7 0 71 c1 176 64 320 170 389 41 26 51 28 108
24 43 -3 83 -15 127 -36z m-337 -18 c-61 -66 -98 -188 -98 -330 0 -46 -3 -83
-8 -83 -4 0 -19 7 -32 16 -18 11 -16 8 5 -10 17 -14 33 -26 36 -26 8 0 22 -51
15 -57 -8 -8 -66 27 -107 64 -37 33 -39 39 -39 93 0 126 64 249 170 322 65 46
96 51 58 11z m556 -385 c-18 -116 -82 -218 -176 -278 -77 -50 -120 -59 -166
-34 -35 19 -102 90 -102 108 0 7 29 12 73 14 39 1 98 9 129 17 62 16 152 58
163 76 4 6 -7 3 -25 -6 -57 -29 -109 -44 -196 -56 -112 -15 -167 -7 -183 27
-6 14 -11 27 -11 29 0 3 44 5 98 5 152 0 292 43 357 108 41 41 46 39 39 -10z
m-565 -79 c17 -6 31 -17 31 -24 0 -7 3 -21 7 -30 5 -15 1 -16 -28 -10 -41 9
-46 13 -54 48 -8 30 -3 32 44 16z m-31 -119 c7 -14 23 -38 38 -55 l25 -30 -27
48 c-14 26 -24 50 -21 53 3 3 21 2 40 -1 25 -5 39 -14 47 -33 17 -40 61 -87
100 -108 28 -14 31 -19 16 -22 -31 -7 -137 18 -189 45 -62 31 -129 92 -162
148 -14 24 -25 46 -25 48 0 2 33 -12 73 -32 48 -23 78 -45 85 -61z"/>
<path d="M1478 1837 c21 -22 21 -24 4 -42 -17 -19 -17 -19 6 0 l22 18 -22 24
c-12 13 -24 23 -26 23 -3 0 4 -10 16 -23z"/>
<path d="M655 1709 c-11 -17 1 -21 15 -4 8 9 8 15 2 15 -6 0 -14 -5 -17 -11z"/>
<path d="M635 1329 c-4 -6 -4 -13 0 -17 3 -3 10 0 15 8 7 11 10 12 10 2 0 -7
5 -10 10 -7 6 3 10 10 10 16 0 13 -37 11 -45 -2z"/>
<path d="M695 1260 c3 -5 8 -10 11 -10 2 0 4 5 4 10 0 6 -5 10 -11 10 -5 0 -7
-4 -4 -10z"/>
<path d="M755 1160 c-17 -18 -17 -20 -1 -20 9 0 19 7 23 15 9 25 -2 27 -22 5z"/>
<path d="M1540 1266 c0 -15 37 -32 47 -22 9 8 -17 36 -33 36 -8 0 -14 -6 -14
-14z"/>
<path d="M1430 1122 c0 -19 27 -38 39 -27 7 8 -12 38 -27 43 -7 2 -12 -5 -12
-16z"/>
<path d="M895 1049 c-4 -11 -4 -24 0 -27 9 -9 36 28 29 39 -9 15 -22 10 -29
-12z"/>
<path d="M980 1030 c0 -5 5 -10 10 -10 6 0 10 5 10 10 0 6 -4 10 -10 10 -5 0
-10 -4 -10 -10z"/>
<path d="M1120 995 c0 -16 6 -25 15 -25 9 0 15 9 15 25 0 16 -6 25 -15 25 -9
0 -15 -9 -15 -25z"/>
<path d="M1200 1020 c0 -5 5 -10 10 -10 6 0 10 5 10 10 0 6 -4 10 -10 10 -5 0
-10 -4 -10 -10z"/>
<path d="M767 750 c-3 -11 -1 -20 4 -20 5 0 9 9 9 20 0 11 -2 20 -4 20 -2 0
-6 -9 -9 -20z"/>
<path d="M1675 788 c-9 -24 -1 -113 10 -111 14 4 19 103 6 116 -7 7 -12 5 -16
-5z"/>
<path d="M1500 770 c0 -13 7 -20 20 -20 13 0 20 7 20 20 0 13 -7 20 -20 20
-13 0 -20 -7 -20 -20z"/>
<path d="M1750 735 c0 -46 3 -55 18 -55 27 0 42 20 42 55 0 35 -15 55 -42 55
-15 0 -18 -9 -18 -55z"/>
<path d="M430 520 c0 -5 5 -10 10 -10 6 0 10 5 10 10 0 6 -4 10 -10 10 -5 0
-10 -4 -10 -10z"/>
<path d="M520 555 c0 -9 6 -12 15 -9 8 4 15 7 15 9 0 2 -7 5 -15 9 -9 3 -15 0
-15 -9z"/>
<path d="M1072 553 c-9 -15 -8 -25 2 -38 13 -18 14 -18 24 2 9 15 8 25 -2 38
-13 18 -14 18 -24 -2z"/>
<path d="M1256 561 c-9 -14 2 -51 15 -51 5 0 12 7 16 16 7 19 -21 51 -31 35z"/>
<path d="M1360 535 c0 -22 4 -34 10 -30 6 3 10 17 10 30 0 13 -4 27 -10 30 -6
4 -10 -8 -10 -30z"/>
<path d="M1640 560 c0 -5 5 -10 11 -10 5 0 7 5 4 10 -3 6 -8 10 -11 10 -2 0
-4 -4 -4 -10z"/>
<path d="M1625 520 c3 -5 14 -10 23 -10 15 0 15 2 2 10 -20 13 -33 13 -25 0z"/>
<path d="M418 303 c6 -2 18 -2 25 0 6 3 1 5 -13 5 -14 0 -19 -2 -12 -5z"/>
<path d="M478 303 c7 -3 16 -2 19 1 4 3 -2 6 -13 5 -11 0 -14 -3 -6 -6z"/>
<path d="M418 273 c6 -2 18 -2 25 0 6 3 1 5 -13 5 -14 0 -19 -2 -12 -5z"/>
<path d="M583 323 c15 -2 37 -2 50 0 12 2 0 4 -28 4 -27 0 -38 -2 -22 -4z"/>
<path d="M718 313 c7 -3 16 -2 19 1 4 3 -2 6 -13 5 -11 0 -14 -3 -6 -6z"/>
<path d="M718 283 c7 -3 16 -2 19 1 4 3 -2 6 -13 5 -11 0 -14 -3 -6 -6z"/>
<path d="M760 250 c0 -5 9 -10 21 -10 11 0 17 5 14 10 -3 6 -13 10 -21 10 -8
0 -14 -4 -14 -10z"/>
<path d="M1010 326 c0 -9 7 -16 16 -16 17 0 14 22 -4 28 -7 2 -12 -3 -12 -12z"/>
<path d="M1060 326 c0 -9 5 -16 10 -16 6 0 10 4 10 9 0 6 -4 13 -10 16 -5 3
-10 -1 -10 -9z"/>
<path d="M1507 320 c-3 -12 0 -20 8 -20 8 0 11 8 8 20 -3 11 -7 20 -8 20 -1 0
-5 -9 -8 -20z"/>
<path d="M1360 305 c-10 -13 -9 -15 11 -14 13 0 18 3 11 6 -6 2 -10 9 -6 14 9
15 -2 10 -16 -6z"/>
<path d="M1317 263 c6 -14 43 -18 43 -4 0 5 -11 11 -24 13 -17 4 -23 1 -19 -9z"/>
<path d="M1480 260 c0 -13 5 -18 15 -14 12 5 13 10 4 20 -15 19 -19 18 -19 -6z"/>
<path d="M1451 254 c0 -11 3 -14 6 -6 3 7 2 16 -1 19 -3 4 -6 -2 -5 -13z"/>
<path d="M1810 326 c0 -2 7 -6 15 -10 8 -3 15 -1 15 4 0 6 -7 10 -15 10 -8 0
-15 -2 -15 -4z"/>
<path d="M1770 270 c0 -5 7 -10 15 -10 8 0 15 5 15 10 0 6 -7 10 -15 10 -8 0
-15 -4 -15 -10z"/>
<path d="M931 294 c0 -11 3 -14 6 -6 3 7 2 16 -1 19 -3 4 -6 -2 -5 -13z"/>
<path d="M1161 294 c0 -11 3 -14 6 -6 3 7 2 16 -1 19 -3 4 -6 -2 -5 -13z"/>
<path d="M1226 301 c-4 -7 -5 -15 -2 -18 9 -9 19 4 14 18 -4 11 -6 11 -12 0z"/>
<path d="M1191 288 c0 -9 -9 -22 -18 -27 -14 -8 -8 -10 27 -9 25 0 35 3 23 5
-13 2 -24 13 -26 26 -3 14 -5 16 -6 5z"/>
</g>
</svg>
