<?xml version="1.0" standalone="no"?>
<!DOCTYPE svg PUBLIC "-//W3C//DTD SVG 20010904//EN"
 "http://www.w3.org/TR/2001/REC-SVG-20010904/DTD/svg10.dtd">
<svg version="1.0" xmlns="http://www.w3.org/2000/svg"
 width="225.000000pt" height="225.000000pt" viewBox="0 0 225.000000 225.000000"
 preserveAspectRatio="xMidYMid meet">

<g transform="translate(0.000000,225.000000) scale(0.100000,-0.100000)"
fill="#000000" stroke="none">
<path d="M955 2139 c-227 -24 -500 -113 -641 -210 -57 -39 -55 -22 -23 -249
24 -175 57 -324 107 -491 30 -99 36 -133 31 -169 -5 -36 -1 -58 18 -105 47
-112 141 -290 203 -385 63 -96 170 -233 193 -247 7 -4 0 8 -15 26 -23 26 -28
43 -28 83 l0 50 103 -99 c57 -54 129 -116 160 -137 l56 -38 28 20 28 20 -4
-52 c-1 -28 -8 -58 -15 -66 -10 -13 -9 -13 9 0 218 161 393 377 539 668 42 84
60 129 36 92 -7 -11 -10 -5 -10 24 0 23 17 83 39 140 22 56 56 155 76 220 37
125 95 393 94 436 0 14 -11 -29 -24 -96 -78 -414 -236 -785 -449 -1059 -69
-87 -237 -253 -304 -299 -51 -35 -58 -33 -166 60 -305 261 -526 651 -645 1137
-35 141 -74 397 -69 452 3 36 7 40 83 81 259 142 557 204 872 183 240 -17 491
-94 682 -211 l34 -21 -6 -101 c-6 -117 -1 -109 11 16 l8 86 -49 32 c-109 71
-315 150 -477 184 -163 33 -327 42 -485 25z"/>
<path d="M360 1810 c0 -15 35 -30 69 -30 l31 0 0 -75 c0 -60 3 -75 15 -75 12
0 15 15 15 75 l0 75 31 0 c34 0 69 15 69 30 0 6 -48 10 -115 10 -67 0 -115 -4
-115 -10z"/>
<path d="M705 1800 c15 -17 31 -20 95 -20 64 0 80 3 95 20 18 20 17 20 -95 20
-112 0 -113 0 -95 -20z"/>
<path d="M1020 1765 l0 -55 86 0 c83 0 85 -1 82 -22 -3 -21 -9 -23 -75 -26
-47 -2 -75 -8 -83 -17 -11 -13 1 -15 89 -15 l101 0 0 55 0 55 -85 0 c-78 0
-85 2 -85 20 0 18 7 20 66 20 64 0 104 12 104 30 0 6 -42 10 -100 10 l-100 0
0 -55z"/>
<path d="M1330 1725 l0 -95 88 0 c82 0 112 8 112 32 0 4 -36 8 -80 8 l-80 0 0
75 c0 68 -2 75 -20 75 -19 0 -20 -7 -20 -95z"/>
<path d="M1640 1810 c0 -19 40 -30 105 -30 65 0 105 11 105 30 0 6 -44 10
-105 10 -61 0 -105 -4 -105 -10z"/>
<path d="M700 1725 c9 -11 33 -15 90 -15 81 0 110 6 110 21 0 5 -48 9 -106 9
-94 0 -105 -2 -94 -15z"/>
<path d="M1640 1685 c0 -48 2 -55 20 -55 17 0 20 7 20 40 l0 40 65 0 65 0 0
-40 c0 -33 3 -40 20 -40 18 0 20 7 20 55 l0 55 -105 0 -105 0 0 -55z"/>
<path d="M690 1663 c0 -1 7 -9 16 -17 21 -22 166 -23 183 -2 11 13 -3 15 -93
18 -58 2 -106 2 -106 1z"/>
<path d="M735 1505 c-108 -13 -284 -51 -297 -63 -4 -4 2 -17 12 -30 l19 -22
71 19 c157 44 280 56 575 56 295 0 418 -12 575 -56 l71 -19 19 22 c10 13 16
26 12 30 -13 13 -186 49 -311 63 -157 19 -591 18 -746 0z"/>
<path d="M750 1389 c-90 -10 -209 -36 -230 -49 -13 -9 -11 -13 10 -30 14 -12
50 -34 81 -50 l56 -29 12 25 c14 33 79 60 159 68 58 5 63 4 70 -17 5 -12 53
-247 107 -522 55 -275 101 -493 103 -485 2 8 49 242 105 520 l102 505 65 -4
c81 -4 137 -26 159 -62 l17 -27 46 22 c26 12 63 35 84 51 l37 29 -39 13 c-73
26 -209 44 -359 49 l-150 5 -30 -40 c-16 -22 -34 -40 -40 -40 -5 0 -23 18 -40
39 l-30 39 -110 -1 c-60 0 -144 -4 -185 -9z"/>
<path d="M400 1035 c0 -5 5 -17 10 -25 5 -8 10 -10 10 -5 0 6 -5 17 -10 25 -5
8 -10 11 -10 5z"/>
</g>
</svg>
